<!DOCTYPE svg PUBLIC "-//W3C//DTD SVG 1.1//EN" "http://www.w3.org/Graphics/SVG/1.1/DTD/svg11.dtd">
<!-- Uploaded to: SVG Repo, www.svgrepo.com, Transformed by: SVG Repo Mixer Tools -->
<svg height="800px" width="800px" version="1.1" xmlns="http://www.w3.org/2000/svg" xmlns:xlink="http://www.w3.org/1999/xlink" viewBox="0 0 64 64" xml:space="preserve" fill="#000000">
<g id="SVGRepo_bgCarrier" stroke-width="0"/>
<g id="SVGRepo_tracerCarrier" stroke-linecap="round" stroke-linejoin="round"/>
<g id="SVGRepo_iconCarrier"> <style type="text/css"> .st0{fill:#0c4a6e;} .st1{opacity:0.2;} .st2{fill:#231F20;} .st3{fill:#f1f5f9;} .st4{fill:#7dd3fc;} .st5{fill:#38bdf8;} .st6{fill:#0ea5e9;} .st7{fill:#0284c7;} .st8{fill:#0369a1;} </style> <g id="Layer_1"> <g> <circle class="st0" cx="31.8" cy="32" r="32"/> </g> <g class="st1"> <path class="st2" d="M32,12c-8.5,0-18,5.4-21.1,15.7c-1.6,5.2,5.2,3.1,5.6,9.2c0.4,4.9-1.1,6.6-1.4,9.6c-0.4,4,8.9,10,17.2,9.6 C44.6,55.4,54,46.3,54,34S44.3,12,32,12z M24,48c-2.2,0-4-1.8-4-4c0-2.2,1.8-4,4-4s4,1.8,4,4C28,46.2,26.2,48,24,48z"/> </g> <g> <path class="st3" d="M32,10c-8.5,0-18,5.4-21.1,15.7c-1.6,5.2,5.2,3.1,5.6,9.2c0.4,4.9-1.1,6.6-1.4,9.6c-0.4,4,8.9,10,17.2,9.6 C44.6,53.4,54,44.3,54,32S44.3,10,32,10z M24,46c-2.2,0-4-1.8-4-4c0-2.2,1.8-4,4-4s4,1.8,4,4C28,44.2,26.2,46,24,46z"/> </g> <g class="st1"> <circle class="st2" cx="20.7" cy="25" r="4"/> </g> <g class="st1"> <circle class="st2" cx="32" cy="19.6" r="4"/> </g> <g class="st1"> <circle class="st2" cx="43.2" cy="24.7" r="4"/> </g> <g class="st1"> <circle class="st2" cx="46.2" cy="37.3" r="4"/> </g> <g class="st1"> <circle class="st2" cx="37.1" cy="47.1" r="4"/> </g> <g> <circle class="st4" cx="20.7" cy="23" r="4"/> </g> <g> <circle class="st5" cx="32" cy="17.6" r="4"/> </g> <g> <circle class="st6" cx="43.2" cy="22.7" r="4"/> </g> <g> <circle class="st7" cx="46.2" cy="35.3" r="4"/> </g> <g> <circle class="st8" cx="37.1" cy="45.1" r="4"/> </g> </g> <g id="Layer_2"> </g> </g>
</svg>